# xmcd
#
# Track frame offsets: 
#        150
#        19893
#        52572
#        74731
#        108012
#        133463
#        148566
#        179290
#        209399
#        231121
#
# Disc length: 3176 seconds
#
# Revision: 0
# Processed by: cddbd v1.5PL3 Copyright (c) Steve Scherf et al.
# Submitted via: ExactAudioCopy v0.95a3
#
DISCID=8e0c660a
DTITLE=OSCAR ABELLI - TexaSession
DYEAR=1999
DGENRE=Blues
TTITLE0=She's A Woman
TTITLE1=(Babe) I Need Your Love
TTITLE2=Swing In 6th Street
TTITLE3=Hoocie Coocie Man
TTITLE4=(on air):Mean Old World
TTITLE5=(intro):Drums Solo
TTITLE6=Black Denim Trousers
TTITLE7=Flyng Saucers
TTITLE8=Everything's Gonna Be Alright
TTITLE9=Talk In The Van
EXTD=
EXTT0=
EXTT1=
EXTT2=
EXTT3=
EXTT4=
EXTT5=
EXTT6=
EXTT7=
EXTT8=
EXTT9=
PLAYORDER=
